<?xml version="1.0" encoding="utf-8"?>
<!-- Generator: Adobe Illustrator 23.0.1, SVG Export Plug-In . SVG Version: 6.00 Build 0)  -->
<svg version="1.1" id="Layer_1" xmlns="http://www.w3.org/2000/svg" xmlns:xlink="http://www.w3.org/1999/xlink" x="0px" y="0px"
	 viewBox="0 0 63 23.4" style="enable-background:new 0 0 63 23.4;" xml:space="preserve">
<style type="text/css">
	.st0{fill:#E50913;}
	.st1{fill:url(#SVGID_1_);}
	.st2{fill:url(#SVGID_2_);}
	.st3{fill:url(#SVGID_3_);}
	.st4{fill:url(#SVGID_4_);}
	.st5{fill:url(#SVGID_5_);}
	.st6{fill:url(#SVGID_6_);}
</style>
<g>
	<g>
		<g>
			<path class="st0" d="M1.4,1.2c3.5,0,5.2,0,8.7,0c0,1.1,0,1.7,0,2.8c-2.2,0-3.3,0-5.4,0.1c0,2.3,0,3.4,0,5.7
				c1.7-0.1,2.5-0.1,4.2-0.2c0,1.1,0,1.7,0,2.9c-1.7,0.1-2.5,0.2-4.2,0.3c0,3.6,0,5.4,0,8.9c-1.3,0.2-2,0.3-3.3,0.5
				C1.4,13.8,1.4,9.6,1.4,1.2z"/>
			<path class="st0" d="M13.3,1.2c1.8,0,2.7,0,4.5,0c1.3,7.6,2,11.4,3.4,18.9c-1.3,0.1-2,0.1-3.3,0.2c-0.2-1.5-0.4-2.2-0.6-3.8
				c0,0,0,0,0,0.1c-1.5,0.1-2.2,0.1-3.8,0.2c-0.2,1.5-0.4,2.3-0.6,3.9c-1.2,0.1-1.8,0.2-3.1,0.3C11.2,13,11.9,9,13.3,1.2z M16.9,14
				c-0.6-3.8-0.9-5.7-1.5-9.5c0,0,0,0-0.1,0c-0.6,3.8-0.9,5.8-1.5,9.6C15.1,14.1,15.7,14.1,16.9,14z"/>
			<path class="st0" d="M22.8,1.2c2,0,3,0,5,0c1.7,0,2.9,0.4,3.7,1.1C32.3,3,32.7,4,32.7,5.5c0,0.3,0,0.5,0,0.8c0,1-0.2,1.7-0.5,2.3
				c-0.4,0.6-0.9,1-1.6,1.3c0,0,0,0,0,0c1.6,0.5,2.5,1.8,2.5,3.9c0,0.6,0,1,0,1.6c0,1.4-0.4,2.5-1.3,3.3c-0.8,0.8-2.1,1.1-3.8,1.2
				c-2.1,0-3.1,0.1-5.2,0.2C22.8,12.5,22.8,8.7,22.8,1.2z M27.4,8.8c0.7,0,1.2-0.2,1.5-0.5s0.5-0.8,0.5-1.5c0-0.4,0-0.6,0-1
				c0-0.7-0.1-1.2-0.4-1.5s-0.7-0.5-1.3-0.5c-0.6,0-1,0-1.6,0c0,2,0,3,0,4.9C26.6,8.8,26.9,8.8,27.4,8.8z M28,17.2
				c0.6,0,1-0.1,1.3-0.4c0.3-0.3,0.4-0.8,0.4-1.4c0-0.6,0-1,0-1.6c0-0.9-0.2-1.4-0.5-1.8c-0.3-0.3-0.9-0.5-1.6-0.5
				c-0.6,0-0.9,0-1.5,0c0,2.3,0,3.5,0,5.7C26.8,17.2,27.2,17.2,28,17.2z"/>
			<path class="st0" d="M34.9,1.2c1.3,0,2,0,3.3,0c0,6.4,0,9.6,0,16.1c2.2,0.1,3.3,0.1,5.4,0.2c0,1.1,0,1.6,0,2.7
				c-3.5-0.2-5.2-0.3-8.8-0.3C34.9,12.4,34.9,8.7,34.9,1.2z"/>
			<path class="st0" d="M45.2,1.2c1.3,0,2,0,3.3,0c0,7.8,0,11.6,0,19.4c-1.3-0.1-2-0.2-3.3-0.3C45.2,12.7,45.2,8.9,45.2,1.2z"/>
			<path class="st0" d="M53.9,11c-1.5-4-2.2-5.9-3.7-9.7c1.4,0,2.1,0,3.5,0c0.9,2.6,1.3,3.9,2.2,6.5c0,0,0,0,0.1,0
				c0.9-2.6,1.4-3.9,2.3-6.5c1.2,0,1.9,0,3.1,0c-1.4,4.1-2.2,6.1-3.6,10c1.5,4.3,2.3,6.5,3.8,11c-1.4-0.2-2.1-0.3-3.5-0.5
				c-1-3-1.4-4.5-2.4-7.3c0,0,0,0-0.1,0c-1,2.7-1.5,4.1-2.4,6.7c-1.2-0.1-1.9-0.2-3.1-0.3C51.6,16.9,52.4,14.9,53.9,11z"/>
		</g>
	</g>
	<g>
		<g>
			
				<linearGradient id="SVGID_1_" gradientUnits="userSpaceOnUse" x1="5.7641" y1="3.9175" x2="5.7641" y2="24.9175" gradientTransform="matrix(1 0 0 -1 0 26.1326)">
				<stop  offset="0" style="stop-color:#333333"/>
				<stop  offset="5.690000e-02" style="stop-color:#4C2D2D"/>
				<stop  offset="0.1791" style="stop-color:#7B2121"/>
				<stop  offset="0.3053" style="stop-color:#A31717"/>
				<stop  offset="0.4337" style="stop-color:#C50F0F"/>
				<stop  offset="0.5649" style="stop-color:#DE0808"/>
				<stop  offset="0.7001" style="stop-color:#F10404"/>
				<stop  offset="0.8416" style="stop-color:#FB0101"/>
				<stop  offset="1" style="stop-color:#FF0000"/>
			</linearGradient>
			<path class="st1" d="M1.4,1.2c3.5,0,5.2,0,8.7,0c0,1.1,0,1.7,0,2.8c-2.2,0-3.3,0-5.4,0.1c0,2.3,0,3.4,0,5.7
				c1.7-0.1,2.5-0.1,4.2-0.2c0,1.1,0,1.7,0,2.9c-1.7,0.1-2.5,0.2-4.2,0.3c0,3.6,0,5.4,0,8.9c-1.3,0.2-2,0.3-3.3,0.5
				C1.4,13.8,1.4,9.6,1.4,1.2z"/>
			
				<linearGradient id="SVGID_2_" gradientUnits="userSpaceOnUse" x1="15.5091" y1="3.9218" x2="15.5091" y2="24.9218" gradientTransform="matrix(1 0 0 -1 0 26.1326)">
				<stop  offset="0" style="stop-color:#333333"/>
				<stop  offset="5.690000e-02" style="stop-color:#4C2D2D"/>
				<stop  offset="0.1791" style="stop-color:#7B2121"/>
				<stop  offset="0.3053" style="stop-color:#A31717"/>
				<stop  offset="0.4337" style="stop-color:#C50F0F"/>
				<stop  offset="0.5649" style="stop-color:#DE0808"/>
				<stop  offset="0.7001" style="stop-color:#F10404"/>
				<stop  offset="0.8416" style="stop-color:#FB0101"/>
				<stop  offset="1" style="stop-color:#FF0000"/>
			</linearGradient>
			<path class="st2" d="M13.3,1.2c1.8,0,2.7,0,4.5,0c1.3,7.6,2,11.4,3.4,18.9c-1.3,0.1-2,0.1-3.3,0.2c-0.2-1.5-0.4-2.2-0.6-3.8
				c0,0,0,0,0,0.1c-1.5,0.1-2.2,0.1-3.8,0.2c-0.2,1.5-0.4,2.3-0.6,3.9c-1.2,0.1-1.8,0.2-3.1,0.3C11.2,13,11.9,9,13.3,1.2z M16.9,14
				c-0.6-3.8-0.9-5.7-1.5-9.5c0,0,0,0-0.1,0c-0.6,3.8-0.9,5.8-1.5,9.6C15.1,14.1,15.7,14.1,16.9,14z"/>
			
				<linearGradient id="SVGID_3_" gradientUnits="userSpaceOnUse" x1="27.8641" y1="3.9218" x2="27.8641" y2="24.9218" gradientTransform="matrix(1 0 0 -1 0 26.1326)">
				<stop  offset="0" style="stop-color:#333333"/>
				<stop  offset="5.690000e-02" style="stop-color:#4C2D2D"/>
				<stop  offset="0.1791" style="stop-color:#7B2121"/>
				<stop  offset="0.3053" style="stop-color:#A31717"/>
				<stop  offset="0.4337" style="stop-color:#C50F0F"/>
				<stop  offset="0.5649" style="stop-color:#DE0808"/>
				<stop  offset="0.7001" style="stop-color:#F10404"/>
				<stop  offset="0.8416" style="stop-color:#FB0101"/>
				<stop  offset="1" style="stop-color:#FF0000"/>
			</linearGradient>
			<path class="st3" d="M22.8,1.2c2,0,3,0,5,0c1.7,0,2.9,0.4,3.7,1.1C32.3,3,32.7,4,32.7,5.5c0,0.3,0,0.5,0,0.8c0,1-0.2,1.7-0.5,2.3
				c-0.4,0.6-0.9,1-1.6,1.3c0,0,0,0,0,0c1.6,0.5,2.5,1.8,2.5,3.9c0,0.6,0,1,0,1.6c0,1.4-0.4,2.5-1.3,3.3c-0.8,0.8-2.1,1.1-3.8,1.2
				c-2.1,0-3.1,0.1-5.2,0.2C22.8,12.5,22.8,8.7,22.8,1.2z M27.4,8.8c0.7,0,1.2-0.2,1.5-0.5s0.5-0.8,0.5-1.5c0-0.4,0-0.6,0-1
				c0-0.7-0.1-1.2-0.4-1.5s-0.7-0.5-1.3-0.5c-0.6,0-1,0-1.6,0c0,2,0,3,0,4.9C26.6,8.8,26.9,8.8,27.4,8.8z M28,17.2
				c0.6,0,1-0.1,1.3-0.4c0.3-0.3,0.4-0.8,0.4-1.4c0-0.6,0-1,0-1.6c0-0.9-0.2-1.4-0.5-1.8c-0.3-0.3-0.9-0.5-1.6-0.5
				c-0.6,0-0.9,0-1.5,0c0,2.3,0,3.5,0,5.7C26.8,17.2,27.2,17.2,28,17.2z"/>
			
				<linearGradient id="SVGID_4_" gradientUnits="userSpaceOnUse" x1="39.2891" y1="3.9218" x2="39.2891" y2="24.9218" gradientTransform="matrix(1 0 0 -1 0 26.1326)">
				<stop  offset="0" style="stop-color:#333333"/>
				<stop  offset="5.690000e-02" style="stop-color:#4C2D2D"/>
				<stop  offset="0.1791" style="stop-color:#7B2121"/>
				<stop  offset="0.3053" style="stop-color:#A31717"/>
				<stop  offset="0.4337" style="stop-color:#C50F0F"/>
				<stop  offset="0.5649" style="stop-color:#DE0808"/>
				<stop  offset="0.7001" style="stop-color:#F10404"/>
				<stop  offset="0.8416" style="stop-color:#FB0101"/>
				<stop  offset="1" style="stop-color:#FF0000"/>
			</linearGradient>
			<path class="st4" d="M34.9,1.2c1.3,0,2,0,3.3,0c0,6.4,0,9.6,0,16.1c2.2,0.1,3.3,0.1,5.4,0.2c0,1.1,0,1.6,0,2.7
				c-3.5-0.2-5.2-0.3-8.8-0.3C34.9,12.4,34.9,8.7,34.9,1.2z"/>
			
				<linearGradient id="SVGID_5_" gradientUnits="userSpaceOnUse" x1="46.8991" y1="3.9218" x2="46.8991" y2="24.9218" gradientTransform="matrix(1 0 0 -1 0 26.1326)">
				<stop  offset="0" style="stop-color:#333333"/>
				<stop  offset="5.690000e-02" style="stop-color:#4C2D2D"/>
				<stop  offset="0.1791" style="stop-color:#7B2121"/>
				<stop  offset="0.3053" style="stop-color:#A31717"/>
				<stop  offset="0.4337" style="stop-color:#C50F0F"/>
				<stop  offset="0.5649" style="stop-color:#DE0808"/>
				<stop  offset="0.7001" style="stop-color:#F10404"/>
				<stop  offset="0.8416" style="stop-color:#FB0101"/>
				<stop  offset="1" style="stop-color:#FF0000"/>
			</linearGradient>
			<path class="st5" d="M45.2,1.2c1.3,0,2,0,3.3,0c0,7.8,0,11.6,0,19.4c-1.3-0.1-2-0.2-3.3-0.3C45.2,12.7,45.2,8.9,45.2,1.2z"/>
			
				<linearGradient id="SVGID_6_" gradientUnits="userSpaceOnUse" x1="55.8641" y1="3.9175" x2="55.8641" y2="24.9175" gradientTransform="matrix(1 0 0 -1 0 26.1326)">
				<stop  offset="0" style="stop-color:#333333"/>
				<stop  offset="5.690000e-02" style="stop-color:#4C2D2D"/>
				<stop  offset="0.1791" style="stop-color:#7B2121"/>
				<stop  offset="0.3053" style="stop-color:#A31717"/>
				<stop  offset="0.4337" style="stop-color:#C50F0F"/>
				<stop  offset="0.5649" style="stop-color:#DE0808"/>
				<stop  offset="0.7001" style="stop-color:#F10404"/>
				<stop  offset="0.8416" style="stop-color:#FB0101"/>
				<stop  offset="1" style="stop-color:#FF0000"/>
			</linearGradient>
			<path class="st6" d="M53.9,11c-1.5-4-2.2-5.9-3.7-9.7c1.4,0,2.1,0,3.5,0c0.9,2.6,1.3,3.9,2.2,6.5c0,0,0,0,0.1,0
				c0.9-2.6,1.4-3.9,2.3-6.5c1.2,0,1.9,0,3.1,0c-1.4,4.1-2.2,6.1-3.6,10c1.5,4.3,2.3,6.5,3.8,11c-1.4-0.2-2.1-0.3-3.5-0.5
				c-1-3-1.4-4.5-2.4-7.3c0,0,0,0-0.1,0c-1,2.7-1.5,4.1-2.4,6.7c-1.2-0.1-1.9-0.2-3.1-0.3C51.6,16.9,52.4,14.9,53.9,11z"/>
		</g>
	</g>
</g>
</svg>
